<svg width="512" height="512" viewBox="0 0 512 512" fill="none" xmlns="http://www.w3.org/2000/svg">
<rect width="512" height="512" fill="url(#paint0_linear_41_1107)"/>
<path d="M114.616 137.62C117.202 134.67 120.065 130.736 118.218 127.249C128.563 121.348 137.707 113.569 145.189 104.449C141.125 107.578 136.691 110.082 131.98 112.049C167.356 78.2515 220.558 62.8728 269.419 72.3503C230.072 70.9197 189.985 81.0232 157.473 102.482C124.868 123.851 100.115 156.665 90.601 193.681C105.01 153.178 135.398 118.218 174.191 97.6536C171.143 100.694 168.095 103.823 164.955 106.863C179.733 100.962 193.126 92.1102 207.812 85.9408C250.946 67.701 302.855 74.5856 343.034 98.3689C383.212 122.152 412.122 161.135 428.933 203.695C436.322 222.293 441.494 242.947 434.937 261.812C433.459 237.224 425.146 213.53 414.339 191.267C396.421 154.161 370.743 119.381 334.629 98.1007C298.514 76.9103 250.761 71.2774 213.816 91.216C232.75 89.249 251.87 88.1761 270.62 90.769C305.903 95.5972 338.508 113.479 363.262 138.246C387.923 163.102 405.01 194.486 415.078 227.478C424.869 259.756 428.102 295.341 415.54 326.814C452.209 269.412 446.113 189.479 401.316 137.889C382.566 116.341 358.274 99.7995 332.042 87.8184C301.747 74.0491 268.495 66.0916 235.059 66.9857C201.623 67.8798 168.187 77.9832 141.494 97.4748C163.661 78.5197 192.572 67.7904 221.944 64.8398C251.408 61.9786 281.242 66.628 309.228 75.7479C367.418 94.8819 420.435 137.084 437.523 194.218C441.864 208.881 443.804 224.081 445.559 239.281C447.036 252.424 448.237 265.568 447.96 278.8C446.667 344.16 403.533 407.999 340.632 431.872C322.806 438.578 303.963 442.244 285.029 444.837C254.733 448.949 223.329 450.201 194.142 441.439C179.086 436.879 165.047 429.816 152.024 421.143C98.0826 385.378 64 323.059 64 259.756C64 248.49 65.016 237.314 66.5862 226.227C67.9717 216.034 69.819 205.93 72.867 196.095C77.4852 181.611 84.6897 167.931 94.2032 155.86C95.8658 154.877 97.5284 153.804 99.0986 152.731C77.2081 197.526 64.1847 250.457 84.2279 296.146C77.0234 266.372 76.5616 235.168 82.9348 205.304C84.9668 204.589 86.9988 203.785 88.9385 202.98C89.0308 201.013 89.1232 199.135 89.2155 197.168C87.7377 198.777 86.3522 200.387 84.8744 201.907C88.2919 178.213 98.8215 155.771 114.616 137.62ZM129.487 136.458C135.213 132.703 140.94 128.947 146.666 125.192C143.064 132.256 136.414 137.799 128.655 140.303C92.6331 176.335 81.5493 230.071 85.7981 279.963C87.4606 298.828 91.4323 318.409 103.994 332.894C95.2193 298.024 94.7574 261.186 102.793 226.137C104.363 226.048 104.918 228.015 104.918 229.535C105.564 253.05 101.408 276.565 103.163 300.08C104.918 323.506 113.969 348.273 134.29 361.058C150.176 371.072 165.971 381.087 181.765 391.101C144.819 379.656 112.584 354.8 92.6331 322.612C97.9902 336.649 105.472 349.971 114.708 361.953C113.507 358.734 112.399 355.426 111.198 352.117C120.527 360.611 129.948 368.927 139.277 377.331C146.112 383.501 156.827 389.759 163.846 383.858C164.955 386.094 162.923 388.865 160.429 389.491C157.935 390.206 155.256 389.491 152.762 388.776C163.939 396.555 175.577 403.707 187.584 410.234C185.829 410.503 185.275 413.006 186.383 414.437C187.492 415.867 189.339 416.225 191.094 416.672C235.152 425.881 282.073 422.484 324.191 406.747C287.984 414.973 249.376 416.851 214.277 404.959C184.628 394.945 158.674 375.185 141.679 349.703C136.229 341.477 131.703 332.805 127.547 323.953C114.154 294.805 105.656 262.975 108.058 231.144C110.459 199.314 124.868 167.573 150.73 147.903C153.409 145.846 156.734 143.879 160.059 144.684C134.567 162.566 119.419 192.161 115.447 222.382C111.475 252.692 117.941 283.45 129.302 311.882C137.43 332 148.237 351.491 163.107 367.585C169.48 374.47 176.685 380.729 184.905 385.468C199.961 394.23 217.787 397.538 235.244 399.684C258.982 402.635 282.904 403.886 306.827 403.35C276.624 410.234 245.035 405.317 214.462 400.399C266.371 419.265 327.239 407.731 371.852 375.99C380.719 369.642 389.124 362.578 395.866 354.084C406.211 341.03 412.4 325.115 415.54 308.932C423.668 266.73 412.03 222.65 390.879 184.829C376.193 158.543 356.704 134.223 331.026 117.682C307.011 102.303 278.471 94.1666 249.745 92.6466C205.595 90.1431 158.859 104.27 129.487 136.458ZM216.217 426.865C236.075 431.693 256.119 435.18 276.439 437.505C251.5 443.048 225.823 434.554 201.716 426.239C187.492 421.411 173.083 416.404 159.875 409.251C127.916 392.084 103.902 362.668 89.9545 329.943C87.553 324.132 85.3362 318.32 83.4889 312.419C83.3042 311.704 82.75 313.402 83.4889 313.045C84.2279 312.777 84.1355 311.704 83.766 310.988C75.4532 291.586 70.3732 270.753 68.803 249.831C67.2328 281.483 75.3608 313.313 90.1392 341.656C106.211 372.503 130.318 399.595 160.613 417.924C190.817 436.253 227.208 445.552 262.676 442.244C312.553 437.505 356.334 409.34 396.513 380.461C378.779 403.171 351.901 417.209 325.762 430.441C370.928 418.192 407.135 383.59 428.933 343.355C418.126 361.237 401.223 375.275 382.843 385.825C364.37 396.376 344.142 403.708 323.914 410.771C315.047 413.9 306.088 416.94 296.944 419.444C270.805 426.686 243.28 429.19 216.217 426.865ZM400.946 366.423C405.565 362.221 410.09 357.929 413.785 353.101C419.604 345.322 423.483 336.292 427.178 327.35C432.166 315.191 437.246 302.941 438.539 289.887C436.137 291.944 435.306 294.984 434.382 297.934C422.098 339.153 391.71 375.096 352.27 394.766C370.836 390.743 386.815 379.03 400.946 366.423ZM175.207 410.234C177.147 410.682 179.548 411.486 179.641 413.364C180.379 412.112 182.596 412.112 183.428 413.364C183.797 413.274 183.52 412.649 183.058 412.47C180.287 411.039 177.516 409.609 174.838 408.178C163.661 402.366 153.409 395.124 144.265 386.719C143.157 389.044 143.988 391.995 146.112 393.425C150.176 396.286 154.24 399.148 158.304 402.009C163.2 405.943 169.019 408.804 175.207 410.234ZM441.956 275.045C441.587 281.661 441.217 288.367 440.756 294.984C440.663 295.878 440.663 296.772 440.663 297.666C440.571 299.275 440.478 300.885 440.294 302.405C440.201 304.372 440.109 306.16 440.109 308.127C443.988 292.927 445.374 277.012 444.173 261.455C443.711 261.276 443.249 261.008 442.88 260.739C442.603 265.478 442.233 270.217 441.956 275.045ZM82.9348 177.051C82.2882 178.213 81.734 179.375 81.1798 180.538C81.8264 181.342 83.0271 180.359 83.3042 179.375C83.5813 178.481 83.8584 177.229 84.8744 177.14C84.4126 176.693 83.9508 176.246 83.4889 175.799C83.3042 176.157 83.1195 176.693 83.3042 177.051M150.084 102.839C151.008 102.124 151.931 101.409 152.855 100.604C151.285 99.9783 149.253 100.783 148.606 102.392C149.068 102.571 149.53 102.75 150.084 102.839ZM152.947 98.6372C154.979 99.0842 157.288 98.5477 158.951 97.2066C156.826 97.1172 154.702 97.5642 152.947 98.6372ZM79.4249 189.389C79.3325 188.942 79.2402 188.495 79.2402 188.138C77.4852 188.763 76.654 191.088 77.67 192.608C78.0394 191.446 78.5936 190.373 79.4249 189.389ZM68.9877 234.989C68.5259 235.615 68.8953 236.688 69.7266 236.777C70.1884 235.347 70.0961 233.827 69.6342 232.307C68.7106 232.754 68.4335 234.005 68.9877 234.81M131.241 112.496C131.426 112.764 131.611 113.122 131.796 113.39C130.964 114.552 129.394 115.089 128.009 114.731C128.748 113.748 129.856 113.032 131.057 112.764M123.945 118.218C125.238 117.771 126.623 117.503 128.009 117.592C127.732 119.559 124.314 120.096 123.483 118.218M119.326 114.105C120.158 112.854 121.728 111.959 123.39 112.138C123.76 113.032 123.483 114.105 122.744 114.731C121.451 114.91 119.881 115.089 118.957 114.105M378.225 120.006C378.779 119.917 379.333 120.453 379.241 120.99C379.148 121.526 378.502 121.884 377.948 121.705C377.116 120.811 376.285 119.828 375.454 118.844C376.377 118.129 378.04 118.755 378.225 119.828M127.639 106.774C128.286 106.058 129.579 106.058 130.318 106.684C129.117 107.846 127.547 108.651 125.884 109.188C125.7 108.204 126.623 107.042 127.639 107.131M112.491 189.926C113.323 188.763 115.539 189.21 115.817 190.641C114.708 190.462 113.507 190.82 112.769 191.625C112.307 191.803 111.568 191.446 111.568 190.909C111.475 190.462 112.03 189.926 112.584 190.015M165.324 132.703C165.786 132.524 166.432 132.345 166.894 132.524C167.448 132.703 167.726 133.507 167.356 133.865C165.601 134.938 163.569 135.564 161.537 135.653C162.461 134.402 163.846 133.418 165.324 132.703ZM192.572 412.112C193.495 412.738 194.511 413.364 195.435 413.99C193.403 414.794 191.001 414.347 189.339 412.917C188.969 412.291 189.708 411.397 190.355 411.397C191.186 411.307 191.925 411.754 192.572 412.112ZM150.361 124.477C149.899 123.136 150.269 121.526 151.377 120.543C152.116 120.364 152.855 119.828 153.132 119.023C154.333 119.47 155.441 119.917 156.642 120.364C154.61 121.705 152.485 123.046 150.361 124.477ZM105.287 220.504C105.287 219.968 105.287 219.431 105.287 218.895C106.211 218.448 107.227 218.448 108.058 218.806C106.395 220.504 105.472 222.829 105.656 225.154C104.64 224.438 103.532 223.634 102.424 222.918C103.347 222.203 104.363 221.398 105.379 220.594M99.1909 141.554C99.5604 138.783 101.223 136.279 103.532 134.58C104.179 134.133 105.195 133.865 105.564 134.491C103.532 136.458 101.87 138.693 100.669 141.197C100.392 141.644 99.6528 141.912 99.1909 141.554ZM108.705 196.989C110.552 195.648 112.307 194.307 114.154 192.966C113.692 194.665 113.23 196.185 112.769 197.883C112.122 198.241 111.66 198.867 111.014 199.225C110.367 199.582 109.443 199.672 108.982 199.046C108.612 198.42 109.628 197.526 109.998 198.152C109.628 197.794 109.166 197.436 108.705 196.989ZM179.086 127.696C178.902 128.143 178.717 128.59 178.902 129.126C177.424 129.395 176.038 129.663 174.745 129.931C174.561 130.467 174.376 131.004 174.191 131.54C173.083 131.451 171.974 131.451 170.958 131.451C170.035 131.004 170.958 129.752 171.882 129.305C173.729 128.411 175.669 127.875 177.701 127.606C177.424 127.159 177.147 126.802 176.87 126.355C178.347 125.192 180.102 124.388 182.042 123.851C182.412 124.477 182.504 125.192 182.319 125.908C181.673 126.176 181.026 126.265 180.38 126.086C180.472 126.533 180.564 126.98 180.657 127.517C180.01 127.696 179.548 127.785 179.086 127.696ZM106.857 136.1C107.596 135.653 108.612 135.474 109.443 135.653C109.074 135.206 108.797 134.759 108.52 134.312C109.443 134.133 110.367 133.954 111.383 133.865C111.753 132.971 111.753 131.898 111.383 131.004C112.399 130.915 113.507 131.093 114.431 131.451C114.708 131.809 114.801 132.345 114.708 132.792C114.246 132.971 113.692 133.15 113.138 133.329C112.953 134.223 112.676 135.117 112.491 136.011C112.03 136.279 111.291 136.369 110.737 136.19C109.905 141.018 104.456 143.79 102.516 148.26C101.87 149.78 101.223 151.747 99.5604 151.747C99.0986 151.211 99.1909 150.227 99.8375 149.78C99.1909 149.601 98.6368 149.423 98.0826 149.244C97.9902 148.26 99.6528 148.528 100.484 149.154C101.223 148.528 100.576 147.098 99.6528 147.098C100.669 146.293 101.315 145.041 101.5 143.79C102.516 143.879 103.532 143.521 104.179 142.806C103.44 142.985 102.608 142.449 102.424 141.644C103.902 141.912 105.379 140.571 105.287 139.14C106.395 138.514 107.504 137.889 108.612 137.263C108.15 136.994 107.504 136.547 106.857 136.1ZM396.975 140.839C394.943 138.157 392.818 135.564 390.232 133.329C386.63 130.199 382.012 127.428 381.273 122.778C402.978 140.571 419.696 164.086 429.025 190.105C429.857 190.82 428.933 192.429 427.917 192.161C419.789 174.011 409.352 156.665 396.975 140.839ZM153.132 126.712C156.919 123.762 161.26 120.99 162.83 116.519C163.292 115.268 164.585 114.284 165.786 113.569C184.444 102.214 206.242 95.9548 228.224 95.5972C217.233 98.4583 206.334 101.23 195.343 104.091C178.255 108.472 165.694 122.152 154.148 135.206C144.173 146.561 134.105 157.917 124.129 169.361C122.929 172.491 121.82 175.709 120.62 178.839C120.158 180.269 119.604 181.7 118.31 182.594C117.11 183.488 115.078 183.488 114.339 182.147C118.772 174.637 123.206 167.037 127.732 159.437C134.936 147.634 142.141 135.474 153.132 126.712Z" fill="white"/>
<defs>
<linearGradient id="paint0_linear_41_1107" x1="512" y1="0" x2="0" y2="512" gradientUnits="userSpaceOnUse">
<stop offset="0.171645" stop-color="#B7F99E" stop-opacity="0.78"/>
<stop offset="1" stop-color="#00B200" stop-opacity="0.67"/>
</linearGradient>
</defs>
</svg>
